<?xml version="1.0" encoding="UTF-8"?>
<!DOCTYPE svg PUBLIC "-//W3C//DTD SVG 1.1//EN" "http://www.w3.org/Graphics/SVG/1.1/DTD/svg11.dtd">
<!-- Creator: CorelDRAW X7 -->
<svg xmlns="http://www.w3.org/2000/svg" xml:space="preserve" width="7.639mm" height="11.554mm" version="1.1" style="shape-rendering:geometricPrecision; text-rendering:geometricPrecision; image-rendering:optimizeQuality; fill-rule:evenodd; clip-rule:evenodd"
viewBox="0 0 764 1155"
 xmlns:xlink="http://www.w3.org/1999/xlink">
 <defs>
  <style type="text/css">
   <![CDATA[
    .str0 {stroke:#51CBCA;stroke-width:17.64}
    .fil0 {fill:#51CBCA;fill-rule:nonzero}
   ]]>
  </style>
 </defs>
 <g id="Слой_x0020_1">
  <metadata id="CorelCorpID_0Corel-Layer"/>
  <path class="fil0 str0" d="M382 170c58,0 111,23 149,61 38,38 61,91 61,149 0,57 -23,110 -61,148 -38,38 -91,61 -149,61 -58,0 -110,-23 -148,-61 -38,-38 -62,-91 -62,-148 0,-58 24,-111 62,-149 38,-38 90,-61 148,-61zm114 96c-29,-29 -69,-47 -114,-47 -44,0 -84,18 -113,47 -29,29 -47,69 -47,114 0,44 18,84 47,113 29,29 69,47 113,47 45,0 85,-18 114,-47 29,-29 47,-69 47,-113 0,-45 -18,-85 -47,-114z"/>
  <path class="fil0 str0" d="M382 9c101,0 192,41 258,108 66,67 107,159 107,261 0,118 -48,207 -132,284 -79,67 -124,96 -164,201 -38,98 -47,150 -66,250 -11,-89 -30,-159 -64,-241 -43,-100 -97,-146 -175,-213 -82,-79 -129,-163 -129,-281 0,-102 41,-194 107,-261 66,-67 158,-108 258,-108zm224 143c-57,-57 -136,-93 -224,-93 -87,0 -166,36 -223,93 -57,58 -92,138 -92,226 0,151 78,212 180,303 56,55 93,112 119,171 7,18 13,36 18,55 5,-21 13,-42 21,-62 23,-59 55,-110 99,-155 108,-93 194,-152 194,-312 0,-88 -35,-168 -92,-226z"/>
 </g>
</svg>
