<svg xmlns="http://www.w3.org/2000/svg">
    <symbol id="logo" viewBox="0 0 330 160">
        <title>logo</title>
        <g transform="translate(-782 -203)">
            <path d="M840.52 327.14c-1.43 10.06-12.79 15.77-22.17-8.48-13.65-37.37-24.3-73.54-34.52-111.34 20.53-2.54 47.07.1 56.97 43.37 8.32 33.4 1.99 39.78-14.04 39.42 2.22 7.1 10.4 30.24 13.76 37.03zm-20.57-59.9c4.67.73 4.98-4.85 2.18-15.82-1.66-6.25-5.75-17.08-10.4-14.46 1.82 8.4 5.7 21.98 8.22 30.29zm88.65 40.65c3.57 16.66-7.47 30.05-16.15 4.95 1.89 27.91-18.85 23.87-31.94-19.12-12.16-40.57-4.98-54.27 3.5-52.98 2.6.23 10.46 2.23 16 18.42-2.95-17.33 5.06-17.88 13.27-11.88a885.9 885.9 0 0 0 10.96 53.7c1.77 5.8 2.76 6.37 4.36 6.9zm-21.88-10.29a844.03 844.03 0 0 1-5.28-21.6c-.8-3.42-2.95-8.76-5.42-9.39-5.16-1.26 1.25 23.25 5.15 34.7 2.57 7.57 7.81 8.84 5.55-3.7zm79.82 38.89c.46 2.29.28 5.25-.71 9.18-2.95-3.15-5.31-3.81-6.52-4.28-1.6 10.75-6.1 16.32-11.54 17.81-8.2 2.36-16.8-4.84-20.06-16.26-3.98-14.2 4.87-18.22 12.53-19.21 1.56-.21 3.05-.26 4.46-.3-.07-3.11-1.57-12.37-1.81-14.7-.84 10.32-4.88 14.08-9.13 14.64-6.43.96-15.92-9.76-20.75-31.11-7.93-36.19.88-46.8 8.81-45.78 3.84.4 11.45 4.49 14.3 16.07-.69-9.63 2.55-13.36 7.37-12.86 2.15.22 4.69 1.32 7.25 2.94.05 1.94.2 3.75.38 5.84 1.09 12.42 3.57 26.58 5.53 40.04 1.5 10.33 2.73 20.2 3 29.22 2.6 1.72 5.97 4.06 6.9 8.76zm-30.71-59.55c-.44-2.92-2.2-7.95-4.76-8.06-2.97-.14-2.49 8.4-.94 17.2 1.51 8.82 3.3 17.74 6.56 17.5 1.45-.1 2.56-2.39 2.12-8.08a720.52 720.52 0 0 1-2.98-18.56zm2.84 66.2c.62 2.37 2.08 3.3 2.96 3.1 2.47-.57 4.03-8.8 3.94-10.4-1.22.67-8.31 1.94-6.9 7.3zm45.73-9.3c.3 2.02 1.6 2.78 2.49 2.58 2.47-.58 5.05-7.66 5.18-9.02-1.28.6-8.38 1.88-7.67 6.44zm24.55-59.14c-.15 6.86-.16 13.72-.06 20.58.13 8.54-.21 14.65-1.9 24.88 2.31 1.38 5.27 3.13 5.5 7.06.12 2.02-.47 4.52-2.07 7.91a14.55 14.55 0 0 0-5.85-3.97c-3.15 9.79-8.04 14.74-13.25 16.16-5.5 1.59-15.23-.8-17.5-12.83-2.16-12.02 6.1-16.3 13.88-17.3 1.81-.24 3.55-.35 5.12-.32 1-2.12 1.82-9.27 1.7-12.64-4.98 18.15-22.1 18.01-26.2-13.5a651.4 651.4 0 0 1-2.06-23.05c-.44-6.24-.46-8.62-1.22-11.47.94-1.24 17.43-11.69 19.21 11.99-.03 3.38 1.17 25.42 1.66 27.88.92 5.47 5.8 6.26 6.3-2.74-.38-6.35-.65-12.7-.83-19.07-.23-10.57-.56-18.94 9.19-17.95 10.46 1.06 8.57 9.83 8.38 18.38zm34.28.17c-4.12-.14-4.76.24-5.05 2.66-.9 7.75-1.03 13.79-1.7 22.47-.62 5.76-1.96 9.95-8.86 10.87-7.24.98-7.56-3.47-7.57-9.76.56-32.8 1.99-34.44 1.25-42.46a97.66 97.66 0 0 1 18.42.22c4.21.43 8.39 1.05 12.3 1.92 2.8.68 4.23 4.13 3.52 7.56-.63 3.07-2.87 6.34-7.31 7.86-1.05-.8-3.05-1.27-5-1.34zm57.18 18.92c-3.96 7.36-19.87 14.98-17.7 3.01-10 13.76-27.02 13.44-23.7-8.6 3.02-20.42 14.75-26.29 23.26-25.2 2.58.26 10.13 1.62 9.57 8.96 3.6-7.82 12.1-7.43 18.3-4.5-3.9 7.69-8.6 17.66-11 23.33-.74 2.59-.05 2.82 1.27 3zm-13.67-14.2c.55-1.58.45-4.04-1.83-4.39-4.73-.74-7.65 10.84-8.5 16.37-.5 3.66 4.06 4.03 6.95-1.92 1.08-3.37 2.2-6.73 3.38-10.07z"/>
        </g>
    </symbol>
    <symbol id="vkontakte" viewBox="0 0 550 550">
        <title>vkontakte</title>
        <path d="M545.451,400.298c-0.664-1.431-1.283-2.618-1.858-3.569c-9.514-17.135-27.695-38.167-54.532-63.102l-0.567-0.571 l-0.284-0.28l-0.287-0.287h-0.288c-12.18-11.611-19.893-19.418-23.123-23.415c-5.91-7.614-7.234-15.321-4.004-23.13 c2.282-5.9,10.854-18.36,25.696-37.397c7.807-10.089,13.99-18.175,18.556-24.267c32.931-43.78,47.208-71.756,42.828-83.939 l-1.701-2.847c-1.143-1.714-4.093-3.282-8.846-4.712c-4.764-1.427-10.853-1.663-18.278-0.712l-82.224,0.568 c-1.332-0.472-3.234-0.428-5.712,0.144c-2.475,0.572-3.713,0.859-3.713,0.859l-1.431,0.715l-1.136,0.859 c-0.952,0.568-1.999,1.567-3.142,2.995c-1.137,1.423-2.088,3.093-2.848,4.996c-8.952,23.031-19.13,44.444-30.553,64.238 c-7.043,11.803-13.511,22.032-19.418,30.693c-5.899,8.658-10.848,15.037-14.842,19.126c-4,4.093-7.61,7.372-10.852,9.849 c-3.237,2.478-5.708,3.525-7.419,3.142c-1.715-0.383-3.33-0.763-4.859-1.143c-2.663-1.714-4.805-4.045-6.42-6.995 c-1.622-2.95-2.714-6.663-3.285-11.136c-0.568-4.476-0.904-8.326-1-11.563c-0.089-3.233-0.048-7.806,0.145-13.706 c0.198-5.903,0.287-9.897,0.287-11.991c0-7.234,0.141-15.085,0.424-23.555c0.288-8.47,0.521-15.181,0.716-20.125 c0.194-4.949,0.284-10.185,0.284-15.705s-0.336-9.849-1-12.991c-0.656-3.138-1.663-6.184-2.99-9.137 c-1.335-2.95-3.289-5.232-5.853-6.852c-2.569-1.618-5.763-2.902-9.564-3.856c-10.089-2.283-22.936-3.518-38.547-3.71 c-35.401-0.38-58.148,1.906-68.236,6.855c-3.997,2.091-7.614,4.948-10.848,8.562c-3.427,4.189-3.905,6.475-1.431,6.851 c11.422,1.711,19.508,5.804,24.267,12.275l1.715,3.429c1.334,2.474,2.666,6.854,3.999,13.134c1.331,6.28,2.19,13.227,2.568,20.837 c0.95,13.897,0.95,25.793,0,35.689c-0.953,9.9-1.853,17.607-2.712,23.127c-0.859,5.52-2.143,9.993-3.855,13.418 c-1.715,3.426-2.856,5.52-3.428,6.28c-0.571,0.76-1.047,1.239-1.425,1.427c-2.474,0.948-5.047,1.431-7.71,1.431 c-2.667,0-5.901-1.334-9.707-4c-3.805-2.666-7.754-6.328-11.847-10.992c-4.093-4.665-8.709-11.184-13.85-19.558 c-5.137-8.374-10.467-18.271-15.987-29.691l-4.567-8.282c-2.855-5.328-6.755-13.086-11.704-23.267 c-4.952-10.185-9.329-20.037-13.134-29.554c-1.521-3.997-3.806-7.04-6.851-9.134l-1.429-0.859c-0.95-0.76-2.475-1.567-4.567-2.427 c-2.095-0.859-4.281-1.475-6.567-1.854l-78.229,0.568c-7.994,0-13.418,1.811-16.274,5.428l-1.143,1.711 C0.288,140.146,0,141.668,0,143.763c0,2.094,0.571,4.664,1.714,7.707c11.42,26.84,23.839,52.725,37.257,77.659 c13.418,24.934,25.078,45.019,34.973,60.237c9.897,15.229,19.985,29.602,30.264,43.112c10.279,13.515,17.083,22.176,20.412,25.981 c3.333,3.812,5.951,6.662,7.854,8.565l7.139,6.851c4.568,4.569,11.276,10.041,20.127,16.416 c8.853,6.379,18.654,12.659,29.408,18.85c10.756,6.181,23.269,11.225,37.546,15.126c14.275,3.905,28.169,5.472,41.684,4.716h32.834 c6.659-0.575,11.704-2.669,15.133-6.283l1.136-1.431c0.764-1.136,1.479-2.901,2.139-5.276c0.668-2.379,1-5,1-7.851 c-0.195-8.183,0.428-15.558,1.852-22.124c1.423-6.564,3.045-11.513,4.859-14.846c1.813-3.33,3.859-6.14,6.136-8.418 c2.282-2.283,3.908-3.666,4.862-4.142c0.948-0.479,1.705-0.804,2.276-0.999c4.568-1.522,9.944-0.048,16.136,4.429 c6.187,4.473,11.99,9.996,17.418,16.56c5.425,6.57,11.943,13.941,19.555,22.124c7.617,8.186,14.277,14.271,19.985,18.274 l5.708,3.426c3.812,2.286,8.761,4.38,14.853,6.283c6.081,1.902,11.409,2.378,15.984,1.427l73.087-1.14 c7.229,0,12.854-1.197,16.844-3.572c3.998-2.379,6.373-5,7.139-7.851c0.764-2.854,0.805-6.092,0.145-9.712 C546.782,404.25,546.115,401.725,545.451,400.298z"/>
    </symbol>
    <symbol id="instagram" viewBox="0 0 500 500">
        <title>instagram</title>
        <path d="M421.981,16.562C410.941,5.519,397.711,0,382.298,0H56.248C40.83,0,27.604,5.521,16.561,16.562 C5.52,27.6,0.001,40.828,0.001,56.243V382.29c0,15.413,5.518,28.644,16.56,39.683c11.043,11.04,24.272,16.563,39.687,16.563 h326.046c15.41,0,28.644-5.523,39.684-16.563c11.043-11.039,16.557-24.27,16.557-39.683V56.243 C438.534,40.825,433.021,27.604,421.981,16.562z M157.462,158.025c17.224-16.652,37.924-24.982,62.097-24.982 c24.36,0,45.153,8.33,62.381,24.982c17.228,16.655,25.837,36.785,25.837,60.386c0,23.598-8.609,43.729-25.837,60.379 c-17.228,16.659-38.014,24.988-62.381,24.988c-24.172,0-44.87-8.336-62.097-24.988c-17.228-16.652-25.841-36.781-25.841-60.379 C131.621,194.81,140.234,174.681,157.462,158.025z M388.865,370.589c0,4.945-1.718,9.083-5.141,12.416 c-3.433,3.33-7.519,4.996-12.282,4.996h-305.2c-4.948,0-9.091-1.666-12.419-4.996c-3.333-3.326-4.998-7.471-4.998-12.416V185.575 H89.08c-3.805,11.993-5.708,24.462-5.708,37.402c0,36.553,13.322,67.715,39.969,93.511c26.65,25.786,58.721,38.685,96.217,38.685 c24.744,0,47.583-5.903,68.527-17.703c20.937-11.807,37.486-27.839,49.676-48.112c12.183-20.272,18.274-42.4,18.274-66.38 c0-12.94-1.91-25.406-5.715-37.402h38.547v185.014H388.865z M388.865,115.626c0,5.52-1.903,10.184-5.716,13.99 c-3.805,3.809-8.466,5.711-13.989,5.711h-49.676c-5.517,0-10.185-1.903-13.99-5.711c-3.806-3.806-5.708-8.47-5.708-13.99V68.522 c0-5.33,1.902-9.945,5.708-13.848c3.806-3.901,8.474-5.854,13.99-5.854h49.676c5.523,0,10.185,1.952,13.989,5.854 c3.812,3.903,5.716,8.518,5.716,13.848V115.626z"/>
    </symbol>
    <symbol id="youtube" viewBox="0 0 550 550">
        <title>youtube</title>
        <path d="M459.954,264.376c-2.471-11.233-7.949-20.653-16.416-28.264c-8.474-7.611-18.227-12.085-29.27-13.418 c-35.02-3.806-87.837-5.708-158.457-5.708c-70.618,0-123.341,1.903-158.174,5.708c-11.227,1.333-21.029,5.807-29.407,13.418 c-8.376,7.614-13.896,17.035-16.562,28.264c-4.948,22.083-7.423,55.391-7.423,99.931c0,45.299,2.475,78.61,7.423,99.93 c2.478,11.225,7.951,20.653,16.421,28.261c8.47,7.614,18.225,11.991,29.263,13.134c35.026,3.997,87.847,5.996,158.461,5.996 c70.609,0,123.44-1.999,158.453-5.996c11.043-1.143,20.748-5.52,29.126-13.134c8.377-7.607,13.897-17.036,16.56-28.261 c4.948-22.083,7.426-55.391,7.426-99.93C467.377,319.007,464.899,285.695,459.954,264.376z M165.025,293.218h-30.549v162.45 h-28.549v-162.45h-29.98v-26.837h89.079V293.218z M242.11,455.668H216.7v-15.421c-10.278,11.615-19.989,17.419-29.125,17.419 c-8.754,0-14.275-3.524-16.556-10.564c-1.521-4.568-2.286-11.519-2.286-20.844V314.627h25.41v103.924 c0,6.088,0.096,9.421,0.288,9.993c0.571,3.997,2.568,5.995,5.996,5.995c5.138,0,10.566-3.997,16.274-11.991V314.627h25.41V455.668 z M339.183,413.411c0,13.894-0.855,23.417-2.56,28.558c-3.244,10.462-9.996,15.697-20.273,15.697 c-9.137,0-17.986-5.235-26.556-15.697v13.702h-25.406v-189.29h25.406v61.955c8.189-10.273,17.036-15.413,26.556-15.413 c10.277,0,17.029,5.331,20.273,15.988c1.704,4.948,2.56,14.369,2.56,28.264V413.411z M435.685,390.003h-51.104v24.839 c0,13.134,4.374,19.697,13.131,19.697c6.279,0,10.089-3.422,11.42-10.28c0.376-1.902,0.571-7.706,0.571-17.412h25.981v3.71 c0,9.329-0.195,14.846-0.572,16.563c-0.567,5.133-2.56,10.273-5.995,15.413c-6.852,10.089-17.139,15.133-30.841,15.133 c-13.127,0-23.407-4.855-30.833-14.558c-5.517-7.043-8.275-18.083-8.275-33.12v-49.396c0-15.036,2.662-26.076,7.987-33.119 c7.427-9.705,17.61-14.558,30.557-14.558c12.755,0,22.85,4.853,30.263,14.558c5.146,7.043,7.71,18.083,7.71,33.119V390.003 L435.685,390.003z"/>
        <path d="M302.634,336.043c-4.38,0-8.658,2.101-12.847,6.283v85.934c4.188,4.186,8.467,6.279,12.847,6.279 c7.419,0,11.14-6.372,11.14-19.13v-60.236C313.773,342.418,310.061,336.043,302.634,336.043z"/>
        <path d="M397.428,336.043c-8.565,0-12.847,6.475-12.847,19.41v13.134h25.693v-13.134 C410.274,342.511,405.99,336.043,397.428,336.043z"/>
        <path d="M148.473,113.917v77.375h28.549v-77.375L211.563,0h-29.121l-19.41,75.089L142.759,0h-30.262 c5.33,15.99,11.516,33.785,18.559,53.391C140.003,79.656,145.805,99.835,148.473,113.917z"/>
        <path d="M249.82,193.291c13.134,0,23.219-4.854,30.262-14.561c5.332-7.043,7.994-18.274,7.994-33.689V95.075 c0-15.225-2.669-26.363-7.994-33.406c-7.043-9.707-17.128-14.561-30.262-14.561c-12.756,0-22.75,4.854-29.98,14.561 c-5.327,7.043-7.992,18.181-7.992,33.406v49.965c0,15.225,2.662,26.457,7.992,33.689 C227.073,188.437,237.063,193.291,249.82,193.291z M237.541,89.935c0-13.134,4.093-19.701,12.279-19.701 s12.275,6.567,12.275,19.701v59.955c0,13.328-4.089,19.985-12.275,19.985s-12.279-6.661-12.279-19.985V89.935z"/>
        <path d="M328.328,193.291c9.523,0,19.328-5.901,29.413-17.705v15.703h25.981V48.822h-25.981v108.777 c-5.712,8.186-11.133,12.275-16.279,12.275c-3.429,0-5.428-2.093-5.996-6.28c-0.191-0.381-0.287-3.715-0.287-9.994V48.822h-25.981 v112.492c0,9.705,0.767,16.84,2.286,21.411C313.961,189.768,319.574,193.291,328.328,193.291z"/>
    </symbol>
    <symbol id="google" viewBox="0 0 475.092 475.092">
        <path d="M273.372,302.498c-5.041-6.762-10.608-13.045-16.7-18.842c-6.091-5.804-12.183-11.088-18.271-15.845
        c-6.092-4.757-11.659-9.329-16.702-13.709c-5.042-4.374-9.135-8.945-12.275-13.702c-3.14-4.757-4.711-9.61-4.711-14.558
        c0-6.855,2.19-13.278,6.567-19.274c4.377-5.996,9.707-11.799,15.986-17.417c6.28-5.617,12.559-11.753,18.844-18.415
        c6.276-6.665,11.604-15.465,15.985-26.412c4.373-10.944,6.563-23.458,6.563-37.542c0-16.75-3.713-32.835-11.136-48.25
        c-7.423-15.418-17.89-27.412-31.405-35.976h38.54L303.2,0H178.441c-17.699,0-35.498,1.906-53.384,5.72
        c-26.453,5.9-48.723,19.368-66.806,40.397C40.171,67.15,31.129,90.99,31.129,117.637c0,28.171,10.138,51.583,30.406,70.233
        c20.269,18.649,44.585,27.978,72.945,27.978c5.71,0,12.371-0.478,19.985-1.427c-0.381,1.521-1.043,3.567-1.997,6.136
        s-1.715,4.62-2.286,6.14c-0.57,1.521-1.047,3.375-1.425,5.566c-0.382,2.19-0.571,4.428-0.571,6.71
        c0,12.563,6.086,26.744,18.271,42.541c-14.465,0.387-28.737,1.67-42.825,3.86c-14.084,2.19-28.833,5.616-44.252,10.28
        c-15.417,4.661-29.217,11.42-41.396,20.27c-12.182,8.854-21.317,19.366-27.408,31.549C3.533,361.559,0.01,374.405,0.01,386.017
        c0,12.751,2.857,24.314,8.565,34.69c5.708,10.369,13.035,18.842,21.982,25.406c8.945,6.57,19.273,12.083,30.978,16.562
        c11.704,4.47,23.315,7.659,34.829,9.562c11.516,1.903,22.888,2.854,34.119,2.854c51.007,0,90.981-12.464,119.909-37.397
        c26.648-23.223,39.971-50.062,39.971-80.517c0-10.855-1.57-20.984-4.712-30.409C282.51,317.337,278.42,309.254,273.372,302.498z
            M163.311,198.722c-9.707,0-18.937-2.475-27.694-7.426c-8.757-4.95-16.18-11.374-22.27-19.273
        c-6.088-7.898-11.418-16.796-15.987-26.695c-4.567-9.896-7.944-19.792-10.135-29.692c-2.19-9.895-3.284-19.318-3.284-28.265
        c0-18.271,4.854-33.974,14.562-47.108c9.705-13.134,23.411-19.701,41.112-19.701c12.563,0,23.935,3.899,34.118,11.704
        c10.183,7.804,18.177,17.701,23.984,29.692c5.802,11.991,10.277,24.407,13.417,37.257c3.14,12.847,4.711,24.983,4.711,36.403
        c0,19.036-4.139,34.317-12.419,45.833C195.144,192.964,181.775,198.722,163.311,198.722z M242.251,413.123
        c-5.23,8.949-12.319,15.94-21.267,20.981c-8.946,5.048-18.509,8.758-28.693,11.14c-10.183,2.385-20.889,3.572-32.12,3.572
        c-12.182,0-24.27-1.431-36.258-4.284c-11.99-2.851-23.459-7.187-34.403-12.991c-10.944-5.8-19.795-13.798-26.551-23.982
        c-6.757-10.184-10.135-21.744-10.135-34.69c0-11.419,2.568-21.601,7.708-30.55c5.142-8.945,11.709-16.084,19.702-21.408
        c7.994-5.332,17.319-9.713,27.979-13.131c10.66-3.433,20.937-5.808,30.833-7.139c9.895-1.335,19.985-1.995,30.262-1.995
        c6.283,0,11.043,0.191,14.277,0.567c1.143,0.767,4.043,2.759,8.708,5.996s7.804,5.428,9.423,6.57
        c1.615,1.137,4.567,3.326,8.85,6.563c4.281,3.237,7.327,5.661,9.135,7.279c1.803,1.618,4.421,4.045,7.849,7.279
        c3.424,3.237,5.948,6.043,7.566,8.422c1.615,2.378,3.616,5.28,5.996,8.702c2.38,3.433,4.043,6.715,4.998,9.855
        c0.948,3.142,1.854,6.567,2.707,10.277c0.855,3.72,1.283,7.569,1.283,11.57C250.105,393.713,247.487,404.182,242.251,413.123z"/>
        <polygon points="401.998,73.089 401.998,0 365.449,0 365.449,73.089 292.358,73.089 292.358,109.636 365.449,109.636
        365.449,182.725 401.998,182.725 401.998,109.636 475.081,109.636 475.081,73.089 		"/>
    </symbol>
    <symbol id="odnoklassniki" viewBox="0 0 95.481 95.481">
        <path d="M43.041,67.254c-7.402-0.772-14.076-2.595-19.79-7.064c-0.709-0.556-1.441-1.092-2.088-1.713
        c-2.501-2.402-2.753-5.153-0.774-7.988c1.693-2.426,4.535-3.075,7.489-1.682c0.572,0.27,1.117,0.607,1.639,0.969
        c10.649,7.317,25.278,7.519,35.967,0.329c1.059-0.812,2.191-1.474,3.503-1.812c2.551-0.655,4.93,0.282,6.299,2.514
        c1.564,2.549,1.544,5.037-0.383,7.016c-2.956,3.034-6.511,5.229-10.461,6.761c-3.735,1.448-7.826,2.177-11.875,2.661
        c0.611,0.665,0.899,0.992,1.281,1.376c5.498,5.524,11.02,11.025,16.5,16.566c1.867,1.888,2.257,4.229,1.229,6.425
        c-1.124,2.4-3.64,3.979-6.107,3.81c-1.563-0.108-2.782-0.886-3.865-1.977c-4.149-4.175-8.376-8.273-12.441-12.527
        c-1.183-1.237-1.752-1.003-2.796,0.071c-4.174,4.297-8.416,8.528-12.683,12.735c-1.916,1.889-4.196,2.229-6.418,1.15
        c-2.362-1.145-3.865-3.556-3.749-5.979c0.08-1.639,0.886-2.891,2.011-4.014c5.441-5.433,10.867-10.88,16.295-16.322
        C42.183,68.197,42.518,67.813,43.041,67.254z"/>
        <path d="M47.55,48.329c-13.205-0.045-24.033-10.992-23.956-24.218C23.67,10.739,34.505-0.037,47.84,0
        c13.362,0.036,24.087,10.967,24.02,24.478C71.792,37.677,60.889,48.375,47.55,48.329z M59.551,24.143
        c-0.023-6.567-5.253-11.795-11.807-11.801c-6.609-0.007-11.886,5.316-11.835,11.943c0.049,6.542,5.324,11.733,11.896,11.709
        C54.357,35.971,59.573,30.709,59.551,24.143z"/>
    </symbol>
    <symbol id="twitter" viewBox="0 0 449.956 449.956">
        <path d="M449.956,85.657c-17.702,7.614-35.408,12.369-53.102,14.279c19.985-11.991,33.503-28.931,40.546-50.819
        c-18.281,10.847-37.787,18.268-58.532,22.267c-18.274-19.414-40.73-29.125-67.383-29.125c-25.502,0-47.246,8.992-65.24,26.98
        c-17.984,17.987-26.977,39.731-26.977,65.235c0,6.851,0.76,13.896,2.284,21.128c-37.688-1.903-73.042-11.372-106.068-28.407
        C82.46,110.158,54.433,87.46,31.403,59.101c-8.375,14.272-12.564,29.787-12.564,46.536c0,15.798,3.711,30.456,11.138,43.97
        c7.422,13.512,17.417,24.455,29.98,32.831c-14.849-0.572-28.743-4.475-41.684-11.708v1.142c0,22.271,6.995,41.824,20.983,58.674
        c13.99,16.848,31.645,27.453,52.961,31.833c-7.995,2.091-16.086,3.138-24.269,3.138c-5.33,0-11.136-0.475-17.416-1.42
        c5.9,18.459,16.75,33.633,32.546,45.535c15.799,11.896,33.691,18.028,53.677,18.418c-33.498,26.262-71.66,39.393-114.486,39.393
        c-8.186,0-15.607-0.373-22.27-1.139c42.827,27.596,90.03,41.394,141.612,41.394c32.738,0,63.478-5.181,92.21-15.557
        c28.746-10.369,53.297-24.267,73.665-41.686c20.362-17.415,37.925-37.448,52.674-60.097c14.75-22.651,25.738-46.298,32.977-70.946
        c7.23-24.653,10.848-49.344,10.848-74.092c0-5.33-0.096-9.325-0.287-11.991C421.785,120.202,437.202,104.306,449.956,85.657z"/>
    </symbol>
    <symbol id="facebook"  viewBox="0 0 90 90">
        <path d="M90,15.001C90,7.119,82.884,0,75,0H15C7.116,0,0,7.119,0,15.001v59.998
        C0,82.881,7.116,90,15.001,90H45V56H34V41h11v-5.844C45,25.077,52.568,16,61.875,16H74v15H61.875C60.548,31,59,32.611,59,35.024V41
        h15v15H59v34h16c7.884,0,15-7.119,15-15.001V15.001z"/>
    </symbol>
   <symbol id="three-circles">
        <circle cx="2" cy="2" r="2" />
        <circle cx="2" cy="10" r="2" />
        <circle cx="2" cy="18" r="2" />
    </symbol>
    <symbol id="four-circles">
        <circle cx="2" cy="2" r="2" />
        <circle cx="2" cy="10" r="2" />
        <circle cx="2" cy="18" r="2" />
        <circle cx="2" cy="26" r="2" />
    </symbol>
    <symbol id="arrow-left" viewBox="0 0 731 589">
        <path d="M169 235l237 -1c33,0 60,27 60,60l0 10c0,33 -26,58 -59,58l-238 0 169 169c19,19 -37,78 -64,52 -183,-175 -273,-235 -274,-290 -1,-35 40,-73 112,-138 43,-38 93,-87 160,-149 28,-26 82,40 66,56l-170 173z"/>
        <ellipse class="fil0" cx="666" cy="297" rx="65" ry="64"/>
    </symbol>
    <symbol id="arrow-right" viewBox="0 0 731 589">
        <path d="M562 235l-237 -1c-33,0 -60,27 -60,60l0 10c0,33 26,58 59,58l238 0 -169 169c-19,19 37,78 64,52 183,-175 273,-235 274,-290 1,-35 -40,-73 -112,-138 -43,-38 -93,-87 -160,-149 -28,-26 -82,40 -66,56l170 173z"/>
        <ellipse class="fil0" cx="65" cy="297" rx="65" ry="64"/>
    </symbol>
    <symbol id="to-top">
        <g transform="translate(-1840 -1751)">
            <path id="m3aha" d="M1857.6 1762.62c-.53.54-1.4.55-1.94 0l-3.66-3.67v6.05a2 2 0 1 1-4 0v-6-.09l-3.69 3.72c-.54.54-1.4.53-1.94-.01a1.4 1.4 0 0 1 0-1.97l7.61-7.65 7.61 7.65a1.4 1.4 0 0 1 .01 1.97zm-7.62-5.7l-.08.08a2.04 2.04 0 0 1 .16 0zm.02 13.08a2 2 0 1 1 0 4 2 2 0 0 1 0-4z"/>
        </g>
    </symbol>
    <symbol id="map-pin" viewBox="0 0 764 1155">
        <g>
            <path d="M382 170c58,0 111,23 149,61 38,38 61,91 61,149 0,57 -23,110 -61,148 -38,38 -91,61 -149,61 -58,0 -110,-23 -148,-61 -38,-38 -62,-91 -62,-148 0,-58 24,-111 62,-149 38,-38 90,-61 148,-61zm114 96c-29,-29 -69,-47 -114,-47 -44,0 -84,18 -113,47 -29,29 -47,69 -47,114 0,44 18,84 47,113 29,29 69,47 113,47 45,0 85,-18 114,-47 29,-29 47,-69 47,-113 0,-45 -18,-85 -47,-114z"/>
            <path d="M382 9c101,0 192,41 258,108 66,67 107,159 107,261 0,118 -48,207 -132,284 -79,67 -124,96 -164,201 -38,98 -47,150 -66,250 -11,-89 -30,-159 -64,-241 -43,-100 -97,-146 -175,-213 -82,-79 -129,-163 -129,-281 0,-102 41,-194 107,-261 66,-67 158,-108 258,-108zm224 143c-57,-57 -136,-93 -224,-93 -87,0 -166,36 -223,93 -57,58 -92,138 -92,226 0,151 78,212 180,303 56,55 93,112 119,171 7,18 13,36 18,55 5,-21 13,-42 21,-62 23,-59 55,-110 99,-155 108,-93 194,-152 194,-312 0,-88 -35,-168 -92,-226z"/>
        </g>
    </symbol>
    <symbol id="comment" viewBox="0 0 974 804">
        <path d="M487 1c132,0 253,36 340,95 91,61 147,146 147,241 0,72 -33,139 -90,194 -54,53 -131,95 -221,119 -25,27 -59,52 -97,74 -50,30 -106,56 -157,77 -14,6 -29,-1 -35,-14 -1,-4 -2,-7 -2,-10l0 0 0 -114c-102,-17 -192,-56 -257,-109 -72,-59 -115,-134 -115,-217 0,-95 56,-180 147,-241 87,-59 207,-95 340,-95zm311 139c-79,-54 -189,-87 -311,-87 -122,0 -232,33 -311,87 -76,51 -123,120 -123,197 0,66 36,127 95,176 63,51 151,87 252,101 14,1 25,12 25,26l0 97c39,-17 78,-36 114,-58 36,-21 68,-45 90,-70 0,0 1,-1 1,-1l0 0 0 0c4,-4 8,-6 13,-7 84,-22 155,-59 204,-108 47,-45 74,-99 74,-156 0,-77 -47,-146 -123,-197z"/>
    </symbol>
    <symbol id="like" viewBox="0 0 862 767">
        <path d="M431 167c46,-83 116,-128 187,-140 34,-6 68,-4 100,5 32,9 61,25 84,47 49,47 74,119 51,212 -16,63 -58,135 -131,214 -66,71 -157,149 -277,233 -10,7 -22,6 -31,0 -116,-71 -204,-140 -269,-207 -74,-77 -117,-150 -134,-215 -23,-84 -7,-155 32,-205 22,-28 52,-49 85,-62 33,-12 70,-16 108,-11 67,10 138,51 195,129zm195 -88c-65,11 -131,59 -166,151 -2,6 -6,11 -12,15 -13,7 -29,3 -36,-10 -52,-91 -120,-135 -184,-144 -29,-5 -57,-2 -81,8 -25,9 -46,24 -62,44 -30,38 -42,93 -24,160 16,56 55,121 122,191 60,62 140,126 245,191 111,-78 194,-150 255,-216 66,-72 104,-136 119,-191 18,-72 0,-127 -36,-161 -17,-16 -39,-28 -62,-34 -25,-7 -51,-8 -78,-4z"/>
    </symbol>
    <symbol id="house" viewBox="0 0 784 770">
        <path class="fil0" d="M652 427l0 284c0,33 -26,59 -58,59l-50 0 0 -181c0,-16 -13,-28 -28,-28l-79 0c-15,0 -28,13 -28,28l0 181 -210   0c-32,0 -58,-27 -58,-59l0 -283 -21 21c-18,17 -46,17 -63,-1l-43 -45c-17,-18 -17,-46 1,-63 22,-22 77,-79 142,-143l0 -14 0 -120c0,-13 10,-23 23,-23l60 0c13,0 23,10 23,23l0 32c61,-55 114,-96 137,-94 50,4 323,292 372,342 17,17 17,46 0,63l-44 41c-18,17 -49,20 -63,0l-12 -18z"/>
    </symbol>
    <symbol id="domenart" viewBox="0 0 811 749">
       <circle class="fil0" cx="394" cy="116" r="116"/>
       <circle class="fil0" cx="116" cy="265" r="116"/>
       <circle class="fil0" cx="143" cy="637" r="112"/>
       <circle class="fil0" cx="695" cy="260" r="116"/>
       <circle class="fil0" cx="416" cy="454" r="142"/>
       <path class="fil0" d="M361 213l79 0c-8,53 -16,85 30,130l-114 0c29,-47 24,-78 5,-130z"/>
       <path class="fil0" d="M159 360l67 -82c28,48 63,66 115,82l-57 83c-14,-26 -26,-48 -48,-62 -22,-14 -46,-16 -76,-22z"/>
       <path class="fil0" d="M598 288l53 76c-58,17 -99,16 -104,73l-76 -94c59,12 91,2 127,-55z"/>
       <path class="fil0" d="M291 474l77 107c-58,-5 -108,19 -145,65l-41 -79c52,-14 101,-22 110,-94z"/>
    </symbol>
    <symbol id="two-dot-hor" viewBox="0 0 372 125">
       <circle  cx="310" cy="63" r="63"/>
       <circle  cx="62" cy="63" r="63"/>
    </symbol>
    <view id="google-link" viewBox="0 0 20 20" />
       <use href="#google" width="20" height="20" fill="#cccccc" x="0" y="0" />
    <view id="twitter-link" viewBox="0 20 20 20" />
       <use href="#twitter" width="20" height="20" fill="#cccccc" x="0" y="20" />
    <view id="odnoklassniki-link" viewBox="0 40 20 20" />
       <use href="#odnoklassniki" width="20" height="20" fill="#cccccc" x="0" y="40" />
    <view id="vkontakte-link" viewBox="0 60 20 20" />
       <use href="#vkontakte" width="20" height="20" fill="#cccccc" x="0" y="60" />
    <view id="facebook-link" viewBox="0 80 20 20" />
        <use href="#facebook" width="20" height="20" fill="#cccccc" x="0" y="80" />
    <view id="google-link_hovered" viewBox="0 100 20 20" />
          <use href="#google" width="20" height="20" fill="#c5361f" x="0" y="100" />
    <view id="twitter-link_hovered" viewBox="0 120 20 20" />
        <use href="#twitter" width="20" height="20" fill="#00a1ed" x="0" y="120" />
    <view id="odnoklassniki-link_hovered" viewBox="0 140 20 20" />
        <use href="#odnoklassniki" width="20" height="20" fill="#f5953d" x="0" y="140" />
    <view id="vkontakte-link_hovered" viewBox="0 160 20 20" />
        <use href="#vkontakte" width="20" height="20" fill="#48759f" x="0" y="160" />
    <view id="facebook-link_hovered" viewBox="0 180 20 20" />
        <use href="#facebook" width="20" height="20" fill="#41518d" x="0" y="180" />
    <view id="domenart-icon" viewBox="0 200 20 20" />
        <use href="#domenart" width="20" height="20" fill="#cccccc" x="0" y="200" />
    <view id="domenart-icon_hovered" viewBox="0 220 20 20" />
        <use href="#domenart" width="20" height="20" fill="#0099cb" x="0" y="220" />
    <view id="btn-arrow-tail" viewBox="0 230 20 20" />
        <use href="#two-dot-hor" width="23" height="6" fill="#ffffff" x="0" y="230" />
</svg>
