<svg xmlns="http://www.w3.org/2000/svg" xmlns:xlink="http://www.w3.org/1999/xlink" width="330" height="160" viewBox="0 0 330 160"><defs><path id="j6qwa" d="M840.52 327.14c-1.43 10.06-12.79 15.77-22.17-8.48-13.65-37.37-24.3-73.54-34.52-111.34 20.53-2.54 47.07.1 56.97 43.37 8.32 33.4 1.99 39.78-14.04 39.42 2.22 7.1 10.4 30.24 13.76 37.03zm-20.57-59.9c4.67.73 4.98-4.85 2.18-15.82-1.66-6.25-5.75-17.08-10.4-14.46 1.82 8.4 5.7 21.98 8.22 30.29zm88.65 40.65c3.57 16.66-7.47 30.05-16.15 4.95 1.89 27.91-18.85 23.87-31.94-19.12-12.16-40.57-4.98-54.27 3.5-52.98 2.6.23 10.46 2.23 16 18.42-2.95-17.33 5.06-17.88 13.27-11.88a885.9 885.9 0 0 0 10.96 53.7c1.77 5.8 2.76 6.37 4.36 6.9zm-21.88-10.29a844.03 844.03 0 0 1-5.28-21.6c-.8-3.42-2.95-8.76-5.42-9.39-5.16-1.26 1.25 23.25 5.15 34.7 2.57 7.57 7.81 8.84 5.55-3.7zm79.82 38.89c.46 2.29.28 5.25-.71 9.18-2.95-3.15-5.31-3.81-6.52-4.28-1.6 10.75-6.1 16.32-11.54 17.81-8.2 2.36-16.8-4.84-20.06-16.26-3.98-14.2 4.87-18.22 12.53-19.21 1.56-.21 3.05-.26 4.46-.3-.07-3.11-1.57-12.37-1.81-14.7-.84 10.32-4.88 14.08-9.13 14.64-6.43.96-15.92-9.76-20.75-31.11-7.93-36.19.88-46.8 8.81-45.78 3.84.4 11.45 4.49 14.3 16.07-.69-9.63 2.55-13.36 7.37-12.86 2.15.22 4.69 1.32 7.25 2.94.05 1.94.2 3.75.38 5.84 1.09 12.42 3.57 26.58 5.53 40.04 1.5 10.33 2.73 20.2 3 29.22 2.6 1.72 5.97 4.06 6.9 8.76zm-30.71-59.55c-.44-2.92-2.2-7.95-4.76-8.06-2.97-.14-2.49 8.4-.94 17.2 1.51 8.82 3.3 17.74 6.56 17.5 1.45-.1 2.56-2.39 2.12-8.08a720.52 720.52 0 0 1-2.98-18.56zm2.84 66.2c.62 2.37 2.08 3.3 2.96 3.1 2.47-.57 4.03-8.8 3.94-10.4-1.22.67-8.31 1.94-6.9 7.3zm45.73-9.3c.3 2.02 1.6 2.78 2.49 2.58 2.47-.58 5.05-7.66 5.18-9.02-1.28.6-8.38 1.88-7.67 6.44zm24.55-59.14c-.15 6.86-.16 13.72-.06 20.58.13 8.54-.21 14.65-1.9 24.88 2.31 1.38 5.27 3.13 5.5 7.06.12 2.02-.47 4.52-2.07 7.91a14.55 14.55 0 0 0-5.85-3.97c-3.15 9.79-8.04 14.74-13.25 16.16-5.5 1.59-15.23-.8-17.5-12.83-2.16-12.02 6.1-16.3 13.88-17.3 1.81-.24 3.55-.35 5.12-.32 1-2.12 1.82-9.27 1.7-12.64-4.98 18.15-22.1 18.01-26.2-13.5a651.4 651.4 0 0 1-2.06-23.05c-.44-6.24-.46-8.62-1.22-11.47.94-1.24 17.43-11.69 19.21 11.99-.03 3.38 1.17 25.42 1.66 27.88.92 5.47 5.8 6.26 6.3-2.74-.38-6.35-.65-12.7-.83-19.07-.23-10.57-.56-18.94 9.19-17.95 10.46 1.06 8.57 9.83 8.38 18.38zm34.28.17c-4.12-.14-4.76.24-5.05 2.66-.9 7.75-1.03 13.79-1.7 22.47-.62 5.76-1.96 9.95-8.86 10.87-7.24.98-7.56-3.47-7.57-9.76.56-32.8 1.99-34.44 1.25-42.46a97.66 97.66 0 0 1 18.42.22c4.21.43 8.39 1.05 12.3 1.92 2.8.68 4.23 4.13 3.52 7.56-.63 3.07-2.87 6.34-7.31 7.86-1.05-.8-3.05-1.27-5-1.34zm57.18 18.92c-3.96 7.36-19.87 14.98-17.7 3.01-10 13.76-27.02 13.44-23.7-8.6 3.02-20.42 14.75-26.29 23.26-25.2 2.58.26 10.13 1.62 9.57 8.96 3.6-7.82 12.1-7.43 18.3-4.5-3.9 7.69-8.6 17.66-11 23.33-.74 2.59-.05 2.82 1.27 3zm-13.67-14.2c.55-1.58.45-4.04-1.83-4.39-4.73-.74-7.65 10.84-8.5 16.37-.5 3.66 4.06 4.03 6.95-1.92 1.08-3.37 2.2-6.73 3.38-10.07z"/></defs><g><g transform="translate(-782 -203)"><use fill="#fff" xlink:href="#j6qwa"/></g></g></svg>