<svg xmlns="http://www.w3.org/2000/svg" xmlns:xlink="http://www.w3.org/1999/xlink" width="79" height="39" viewBox="0 0 79 39"><defs><path id="zo9ba" d="M195.9 997.02c-.33 2.31-2.97 3.62-5.14-1.95a304.16 304.16 0 0 1-8.02-25.58c4.77-.58 10.93.02 13.22 9.97 1.93 7.67.47 9.13-3.25 9.05a101.4 101.4 0 0 0 3.19 8.5zm-4.77-13.76c1.08.17 1.15-1.12.5-3.64-.38-1.43-1.33-3.92-2.4-3.32.41 1.93 1.31 5.05 1.9 6.96zm20.57 9.34c.83 3.82-1.74 6.9-3.75 1.13.44 6.42-4.38 5.49-7.41-4.39-2.82-9.32-1.16-12.47.81-12.17.6.05 2.43.51 3.71 4.23-.68-3.98 1.18-4.1 3.08-2.73.72 4.2 1.83 9.45 2.55 12.34.4 1.33.64 1.46 1 1.59zm-6.3-7.33c-.19-.78-.69-2.01-1.26-2.16-1.2-.29.29 5.34 1.2 7.97.59 1.74 1.8 2.04 1.28-.85-.43-1.64-.84-3.3-1.23-4.96zm19.74 13.9c.1.52.07 1.2-.16 2.1-.69-.72-1.24-.87-1.52-.98-.37 2.47-1.41 3.75-2.67 4.1-1.9.54-3.9-1.12-4.66-3.74-.92-3.26 1.13-4.19 2.91-4.42.36-.04.7-.06 1.03-.07-.01-.7-.36-2.84-.42-3.37-.19 2.37-1.13 3.23-2.11 3.36-1.5.22-3.7-2.24-4.82-7.14-1.84-8.32.2-10.75 2.05-10.52.88.1 2.65 1.03 3.31 3.7-.16-2.22.6-3.08 1.71-2.96.5.05 1.1.3 1.68.67.02.45.05.86.1 1.34.25 2.86.82 6.1 1.28 9.2.35 2.37.63 4.64.7 6.72.6.39 1.38.93 1.6 2zm-7.12-13.68c-.1-.67-.52-1.83-1.11-1.86-.69-.03-.58 1.93-.22 3.96.35 2.02.77 4.07 1.53 4.02.33-.03.59-.55.49-1.86-.25-1.42-.48-2.84-.7-4.26zm.65 15.2c.15.55.49.76.7.72.56-.13.93-2.03.9-2.4-.28.16-1.92.45-1.6 1.68zm10.62-2.13c.07.46.37.64.57.6.58-.14 1.18-1.77 1.2-2.08-.3.14-1.94.43-1.77 1.48zm5.68-8.86c.03 1.96-.05 3.36-.44 5.71.54.32 1.22.72 1.27 1.63a3.8 3.8 0 0 1-.48 1.81 3.38 3.38 0 0 0-1.35-.9c-.73 2.24-1.87 3.38-3.08 3.7-1.28.37-3.53-.18-4.06-2.94-.5-2.76 1.42-3.75 3.22-3.98.42-.05.83-.08 1.19-.07.23-.49.42-2.13.4-2.9-1.16 4.17-5.13 4.13-6.09-3.1-.19-1.77-.35-3.53-.47-5.3-.1-1.43-.1-1.98-.29-2.64.22-.28 4.05-2.68 4.46 2.76 0 .77.27 5.84.39 6.4.21 1.26 1.34 1.44 1.46-.63-.09-1.45-.15-2.92-.2-4.38-.05-2.43-.12-4.35 2.14-4.12 2.43.24 1.99 2.26 1.94 4.22-.03 1.58-.04 3.15-.01 4.73zm7.97-4.69c-.96-.03-1.1.06-1.17.61-.21 1.78-.24 3.17-.4 5.16-.14 1.33-.45 2.29-2.05 2.5-1.68.23-1.76-.8-1.76-2.24.13-7.54.46-7.91.29-9.76a24.93 24.93 0 0 1 7.13.5c.65.15.98.94.81 1.73-.14.7-.66 1.46-1.7 1.8-.24-.18-.7-.28-1.15-.3zm12.97 3.66c-.17.6-.01.65.3.69-.92 1.69-4.62 3.44-4.11.69-2.32 3.16-6.27 3.09-5.5-1.98.7-4.69 3.42-6.04 5.4-5.78.6.05 2.35.36 2.22 2.05.83-1.8 2.8-1.7 4.24-1.03-.9 1.76-2 4.06-2.55 5.36zm-2.88-2.58c.13-.36.1-.92-.42-1-1.1-.17-1.78 2.49-1.97 3.76-.12.84.94.92 1.6-.44.26-.78.52-1.55.8-2.32z"/></defs><g><g transform="translate(-181 -967)"><use fill="#fff" xlink:href="#zo9ba"/></g></g></svg>