<svg xmlns="http://www.w3.org/2000/svg" xmlns:xlink="http://www.w3.org/1999/xlink" width="218" height="106" viewBox="0 0 218 106"><defs><path id="3acea" d="M1529.08 505.75c-.94 6.58-8.36 10.3-14.5-5.54-8.92-24.42-15.88-48.06-22.57-72.76 13.42-1.65 30.78.06 37.25 28.35 5.44 21.82 1.3 25.99-9.18 25.75 1.46 4.65 6.8 19.76 9 24.2zm-13.45-39.14c3.05.48 3.25-3.17 1.42-10.34-1.08-4.08-3.76-11.16-6.8-9.45a303.45 303.45 0 0 0 5.38 19.8zm57.96 26.56c2.34 10.9-4.88 19.64-10.55 3.23 1.23 18.25-12.33 15.6-20.9-12.49-7.94-26.5-3.24-35.46 2.3-34.62 1.7.15 6.84 1.46 10.45 12.04-1.92-11.33 3.32-11.68 8.69-7.76a578.65 578.65 0 0 0 7.16 35.08c1.16 3.8 1.8 4.17 2.85 4.52zm-14.3-6.72c-1.22-4.69-2.37-9.4-3.46-14.12-.51-2.23-1.92-5.72-3.54-6.13-3.38-.83.82 15.2 3.37 22.67 1.68 4.95 5.1 5.78 3.63-2.42zm52.2 25.41c.29 1.5.17 3.43-.48 6-1.93-2.06-3.47-2.5-4.26-2.8-1.05 7.03-3.98 10.67-7.54 11.64-5.37 1.54-11-3.16-13.12-10.63-2.6-9.27 3.18-11.9 8.2-12.55 1.01-.13 1.99-.17 2.91-.2-.05-2.03-1.03-8.08-1.18-9.6-.55 6.75-3.2 9.2-5.97 9.57-4.21.62-10.41-6.38-13.57-20.33-5.19-23.65.57-30.58 5.76-29.91 2.5.26 7.48 2.93 9.35 10.5-.45-6.3 1.67-8.74 4.82-8.4 1.4.13 3.06.85 4.74 1.91.03 1.27.13 2.46.25 3.82.7 8.12 2.33 17.36 3.61 26.17.99 6.74 1.79 13.2 1.96 19.09 1.71 1.12 3.91 2.65 4.51 5.72zm-20.1-38.9c-.28-1.92-1.43-5.2-3.1-5.28-1.94-.1-1.63 5.48-.62 11.25 1 5.75 2.16 11.58 4.3 11.43.94-.06 1.67-1.56 1.38-5.29-.7-4.03-1.35-8.07-1.95-12.12zm1.86 43.24c.41 1.55 1.36 2.16 1.94 2.04 1.62-.38 2.64-5.76 2.58-6.8-.8.43-5.44 1.27-4.52 4.76zm29.9-6.07c.2 1.32 1.05 1.82 1.63 1.69 1.62-.38 3.31-5.01 3.4-5.9-.85.4-5.48 1.23-5.02 4.21zm16.06-38.65c-.1 4.49-.1 8.97-.04 13.45.08 5.59-.14 9.57-1.24 16.26 1.51.9 3.44 2.05 3.6 4.61.07 1.33-.32 2.96-1.36 5.17a9.52 9.52 0 0 0-3.83-2.6c-2.05 6.4-5.25 9.64-8.66 10.57-3.6 1.04-9.96-.52-11.43-8.38-1.42-7.86 3.98-10.66 9.07-11.31a22.1 22.1 0 0 1 3.34-.2c.65-1.4 1.2-6.06 1.12-8.27-3.26 11.86-14.46 11.77-17.14-8.83-.54-5-.99-10.02-1.34-15.05-.29-4.08-.3-5.64-.8-7.5.61-.8 11.4-7.63 12.56 7.84-.02 2.2.76 16.6 1.09 18.22.6 3.57 3.79 4.09 4.11-1.8-.24-4.14-.42-8.3-.54-12.46-.15-6.9-.36-12.37 6-11.73 6.85.7 5.61 6.43 5.49 12.01zm22.41.12c-2.69-.1-3.1.15-3.3 1.73-.58 5.07-.67 9.01-1.11 14.68-.4 3.77-1.28 6.5-5.8 7.11-4.72.64-4.94-2.27-4.94-6.38.36-21.43 1.3-22.5.81-27.75 3.88-.34 7.96-.26 12.05.15 2.75.28 5.49.69 8.04 1.26 1.83.44 2.77 2.7 2.3 4.94a6.93 6.93 0 0 1-4.78 5.13c-.68-.52-1.99-.83-3.27-.87zm37.4 12.36c-2.6 4.8-13 9.79-11.58 1.97-6.54 8.98-17.67 8.78-15.5-5.62 1.98-13.35 9.65-17.18 15.21-16.47 1.69.17 6.62 1.06 6.26 5.85 2.35-5.1 7.91-4.85 11.97-2.94a281.8 281.8 0 0 0-7.2 15.25c-.48 1.7-.03 1.84.83 1.96zm-8.95-9.28c.36-1.03.3-2.64-1.2-2.87-3.08-.48-5 7.08-5.54 10.7-.34 2.39 2.64 2.63 4.53-1.25.71-2.21 1.45-4.4 2.21-6.58z"/><path id="3aceb" d="M1531.29 436.33l-.85-.12.28-1.84-3.71-.55-.28 1.84-.83-.13.38-2.56.43.06c.52-.53.96-1.17 1.32-1.91.36-.75.6-1.56.75-2.44l2.8.42-.68 4.55.78.12zm-1.24-2.8l.59-3.87-1.19-.18c-.15.7-.4 1.4-.73 2.07a6 6 0 0 1-1.1 1.61zm4.71 1.54c-.8-.12-1.39-.45-1.77-1a2.79 2.79 0 0 1-.38-2.08c.12-.85.44-1.5.94-1.93.5-.44 1.11-.6 1.83-.5.67.1 1.17.4 1.5.88.34.49.45 1.1.34 1.83l-.08.53-3.65-.55c-.07.6.01 1.08.26 1.44.24.35.63.57 1.16.65a4.28 4.28 0 0 0 1.77-.11l-.12.76a4.33 4.33 0 0 1-1.8.08zm.5-4.8a1.3 1.3 0 0 0-1.05.25 1.9 1.9 0 0 0-.6 1.05l2.72.4c.07-.5 0-.89-.18-1.18a1.2 1.2 0 0 0-.88-.52zm7.13 1.18l-1.74-.26-.7 4.55-.86-.13.7-4.55-1.73-.25.11-.74 4.33.65zm3.76 5.02c-.4.13-.87.16-1.42.08a2.33 2.33 0 0 1-1.69-.97c-.35-.53-.47-1.23-.33-2.1a3 3 0 0 1 .95-1.95c.5-.42 1.16-.57 1.96-.45a3.8 3.8 0 0 1 1.36.5l-.38.68c-.42-.24-.8-.38-1.11-.43-.54-.08-.96.03-1.27.33-.3.3-.5.78-.6 1.44-.1.64-.05 1.15.15 1.53.2.37.56.6 1.06.67.47.07.95.04 1.43-.1zm5.08-4.46l.96.14-2.66 2.21 2.05 3.1-1.01-.14-2-3.04-.41 2.68-.88-.13.8-5.29.87.13-.38 2.57zm2.84.42l-.49 3.23-.18.93-.06.26 3.52-4 1.08.16-.8 5.28-.82-.12.47-3.11.12-.67.12-.63-3.5 4-1.09-.16.8-5.29zm6.3.94l-.5 3.22-.17.93-.06.27 3.52-4 1.07.15-.8 5.29-.8-.12.46-3.12.12-.67.12-.63-3.5 4-1.09-.16.8-5.28zm1.6-.47c-.62-.09-1.05-.27-1.3-.55s-.35-.68-.3-1.22l.81.13c-.02.33.04.58.16.73.13.16.38.26.74.31.34.05.6.02.78-.1.18-.12.31-.33.4-.64l.82.12c-.13.52-.36.87-.7 1.06-.34.2-.81.25-1.4.16zm7.22 4.42l-1.45-2.86 1 .15 1.07 2.2 1.66-1.8.99.15-2.23 2.31 1.53 3-1-.16-1.13-2.32-1.79 1.9-.98-.16zm8.43 1.3c-.13.86-.45 1.5-.97 1.92-.5.42-1.15.57-1.93.46-.48-.07-.9-.25-1.23-.52a2.22 2.22 0 0 1-.72-1.1 3.35 3.35 0 0 1-.08-1.5c.13-.85.45-1.49.95-1.9.51-.42 1.15-.57 1.94-.45.75.1 1.3.44 1.68 1 .37.55.49 1.25.36 2.09zm-2.18-2.37c-1.03-.15-1.65.44-1.85 1.77-.1.67-.04 1.2.17 1.58.21.38.58.61 1.1.69.5.07.91-.04 1.23-.35.32-.3.53-.79.63-1.45.1-.67.04-1.19-.18-1.56-.21-.38-.58-.6-1.1-.68zm5.58 5.68a1.96 1.96 0 0 1-1.54-1l-.06-.01v.2l-.07.67-.33 2.17-.87-.13 1.15-7.65.72.1v.74l.05.01a1.9 1.9 0 0 1 1.78-.57c.7.1 1.2.42 1.5.95.32.54.41 1.24.28 2.1-.13.87-.42 1.51-.88 1.94-.46.43-1.04.59-1.73.48zm.57-4.77c-.53-.08-.94.01-1.21.27-.28.27-.47.71-.58 1.34l-.02.17c-.1.72-.07 1.25.12 1.6.2.36.56.58 1.1.66.44.06.82-.06 1.13-.39.3-.32.5-.8.6-1.44a2.5 2.5 0 0 0-.16-1.54c-.2-.38-.52-.6-.98-.67zm5.19 5.63a2.5 2.5 0 0 1-1.78-1 2.79 2.79 0 0 1-.38-2.08c.13-.85.44-1.5.94-1.93.5-.44 1.11-.6 1.84-.5.67.1 1.17.4 1.5.88.34.49.45 1.1.34 1.83l-.08.52-3.66-.54c-.07.6.02 1.08.26 1.44.24.35.63.57 1.17.65a4.28 4.28 0 0 0 1.76-.11l-.11.76a4.3 4.3 0 0 1-1.8.08zm.5-4.8c-.42-.06-.77.02-1.05.25s-.49.58-.6 1.05l2.71.4c.07-.5.01-.89-.17-1.18a1.2 1.2 0 0 0-.9-.52zm7.79 3.22c-.13.86-.45 1.5-.97 1.92-.51.42-1.16.57-1.93.46-.49-.07-.9-.25-1.23-.53a2.22 2.22 0 0 1-.72-1.08 3.35 3.35 0 0 1-.08-1.5c.13-.86.45-1.5.95-1.92.5-.41 1.15-.56 1.94-.44.75.1 1.3.44 1.68 1 .36.55.49 1.25.36 2.09zm-2.18-2.37c-1.03-.15-1.65.44-1.85 1.77-.1.67-.04 1.2.17 1.57.21.39.57.62 1.09.7.5.07.92-.04 1.24-.35.32-.3.52-.79.62-1.45.1-.67.05-1.19-.17-1.56-.22-.38-.58-.6-1.1-.68zm7 1.14l-2.38-.35-.68 4.55-.88-.13.8-5.28 3.25.48zm2.78 5.17a1.96 1.96 0 0 1-1.53-1.01l-.06-.01-.01.2a6.7 6.7 0 0 1-.06.67l-.33 2.18-.88-.13 1.16-7.66.72.1v.75h.04a1.9 1.9 0 0 1 1.79-.57c.7.1 1.2.42 1.5.96.32.53.4 1.23.28 2.1-.13.86-.43 1.5-.89 1.93-.45.43-1.03.6-1.73.49zm.57-4.77c-.52-.08-.93 0-1.2.27-.29.26-.48.7-.58 1.34l-.02.16c-.11.72-.07 1.26.12 1.61.2.36.56.57 1.1.65.44.07.82-.06 1.12-.38.3-.32.5-.8.6-1.45a2.5 2.5 0 0 0-.15-1.53c-.2-.38-.53-.6-.99-.67zm6.23 5.68l-.05-.78h-.04c-.32.29-.61.47-.9.55a2.5 2.5 0 0 1-1.02.03 1.77 1.77 0 0 1-1.17-.6 1.5 1.5 0 0 1-.28-1.21c.17-1.08 1.1-1.51 2.82-1.31l.9.1.05-.31c.06-.4.02-.71-.12-.93-.15-.22-.42-.35-.8-.41a2.55 2.55 0 0 0-.82 0c-.26.05-.51.11-.75.18l-.17-.69a4.04 4.04 0 0 1 1.9-.18c.64.1 1.1.3 1.37.64.27.32.36.8.26 1.41l-.54 3.6zm-1.7-.87c.48.07.89 0 1.2-.22.33-.22.52-.57.6-1.05l.07-.48-.8-.08a2.91 2.91 0 0 0-1.38.09c-.3.13-.48.37-.54.74-.04.28.01.5.16.67.15.18.38.28.68.33zm10.11-.59a2.66 2.66 0 0 1-.98 1.8c-.54.42-1.23.6-2.07.53l-.34 2.3-.86-.13.35-2.3c-.8-.18-1.4-.55-1.8-1.1a2.62 2.62 0 0 1-.42-2c.12-.8.45-1.4.98-1.81a3 3 0 0 1 2.09-.52l.32-2.13.82.13-.32 2.12c.81.2 1.41.58 1.8 1.13.4.55.55 1.21.43 1.98zm-5.21-.77c-.19 1.22.3 1.98 1.44 2.27l.6-4.01c-.6-.03-1.08.1-1.41.4-.33.3-.54.74-.63 1.34zm2.27 2.4c1.17.04 1.85-.54 2.04-1.76.18-1.2-.3-1.95-1.44-2.25zm5.46-3.95l-.49 3.22-.18.93-.06.27 3.53-4 1.07.15-.8 5.29-.81-.12.47-3.12.11-.67.12-.63-3.5 4-1.08-.16.8-5.29zm6.24.92l-.3 1.93c-.08.6.21.95.9 1.06.3.04.58.04.86-.01s.6-.15.96-.3l.34-2.27.88.13-.8 5.29-.88-.13.36-2.36a3.21 3.21 0 0 1-2.01.33 1.83 1.83 0 0 1-1.2-.6 1.47 1.47 0 0 1-.29-1.21l.3-1.99zm6.68 6.5c-.8-.12-1.39-.45-1.77-1a2.79 2.79 0 0 1-.38-2.08c.12-.85.44-1.5.94-1.93.5-.44 1.1-.6 1.83-.5.67.1 1.17.4 1.5.88.34.49.45 1.1.34 1.83l-.08.52-3.65-.54c-.07.6.01 1.08.25 1.44.25.35.64.57 1.17.65a4.28 4.28 0 0 0 1.77-.12l-.12.76a4.33 4.33 0 0 1-1.8.09zm.5-4.8a1.3 1.3 0 0 0-1.05.25 1.9 1.9 0 0 0-.6 1.04l2.72.4c.07-.49 0-.88-.18-1.17a1.2 1.2 0 0 0-.89-.53zm6.3 5.52c-.4.13-.87.16-1.42.08a2.33 2.33 0 0 1-1.68-.97c-.36-.53-.47-1.23-.34-2.1a3 3 0 0 1 .95-1.96c.5-.41 1.16-.56 1.96-.44a3.8 3.8 0 0 1 1.36.49l-.38.68c-.42-.23-.8-.37-1.11-.42-.54-.08-.96.03-1.27.33-.3.3-.5.77-.6 1.44-.1.64-.05 1.14.16 1.52.2.38.55.6 1.05.68.47.07.95.03 1.44-.1zm5.08-4.46l.96.14-2.66 2.2 2.05 3.11-1.01-.15-2-3.04-.41 2.69-.88-.13.8-5.29.88.13-.4 2.57zm2.84.42l-.49 3.22-.18.93-.06.27 3.53-4 1.07.15-.8 5.29-.81-.12.47-3.12.11-.66.12-.64-3.5 4-1.08-.16.8-5.28zm6.3.93l-.5 3.23-.17.93-.06.26 3.52-4 1.08.16-.8 5.28-.82-.12.47-3.11.12-.67.12-.63-3.5 4-1.09-.16.8-5.29zm1.6-.46c-.62-.1-1.05-.28-1.3-.55-.25-.28-.35-.69-.3-1.22l.82.12c-.03.34.03.58.15.74.13.15.38.26.74.31.34.05.6.01.78-.1.18-.12.31-.33.4-.64l.82.12c-.13.51-.36.87-.7 1.06-.34.2-.81.25-1.4.16zm8.85 7.42l-.06-.78h-.04c-.31.29-.61.47-.9.55a2.5 2.5 0 0 1-1.02.03 1.77 1.77 0 0 1-1.17-.6 1.5 1.5 0 0 1-.27-1.22c.16-1.07 1.1-1.5 2.81-1.3l.9.1.06-.31c.06-.4.01-.71-.13-.93-.15-.22-.41-.36-.8-.41a2.55 2.55 0 0 0-.82 0c-.26.05-.51.1-.75.18l-.17-.7a4.05 4.05 0 0 1 1.9-.17c.64.1 1.1.3 1.37.63s.36.8.27 1.42l-.55 3.6zm-1.71-.87c.48.07.89 0 1.2-.22.33-.22.52-.57.6-1.05l.07-.48-.8-.08a2.91 2.91 0 0 0-1.38.09c-.3.12-.48.37-.54.74-.04.27.01.5.16.67.15.17.38.28.69.33zm5.57-3.96l-.34 2.2 2.9.43.33-2.2.88.13-.8 5.28-.88-.13.36-2.35-2.9-.43-.35 2.35-.88-.13.8-5.28zm8.1 6.41c-.4.14-.87.16-1.41.08a2.33 2.33 0 0 1-1.69-.96c-.36-.54-.47-1.24-.34-2.1a3 3 0 0 1 .96-1.96c.5-.42 1.16-.57 1.96-.45a3.8 3.8 0 0 1 1.35.5l-.37.68c-.43-.24-.8-.38-1.12-.42-.54-.08-.96.03-1.26.32-.31.3-.51.78-.61 1.45-.1.63-.05 1.14.16 1.52.2.37.56.6 1.06.67.47.07.95.04 1.43-.1zm4.43.85l-.06-.78h-.03c-.32.29-.62.47-.9.55a2.5 2.5 0 0 1-1.02.03 1.77 1.77 0 0 1-1.18-.6 1.5 1.5 0 0 1-.27-1.21c.16-1.08 1.1-1.51 2.82-1.3l.9.1.05-.32c.06-.4.02-.71-.13-.93-.14-.22-.4-.35-.8-.4a2.56 2.56 0 0 0-.81 0c-.27.04-.52.1-.75.17l-.17-.69a4.05 4.05 0 0 1 1.89-.18c.64.1 1.1.3 1.37.64.27.33.36.8.27 1.41l-.54 3.6zm-1.71-.87c.49.07.9 0 1.21-.22.32-.22.52-.57.6-1.05l.06-.48-.79-.08a2.92 2.92 0 0 0-1.38.09c-.3.13-.49.37-.54.74-.04.28.01.5.16.67.15.18.37.29.68.33zm6.65-.48c.07.32.14.74.21 1.27.15-.34.33-.68.53-1.03l1.9-3.17 1.13.17-.8 5.28-.79-.11.66-4.36c-.16.33-.35.68-.56 1.04l-1.82 3.06-.71-.1-.84-3.47a8.33 8.33 0 0 1-.22-1.14l-.65 4.35-.79-.11.8-5.29 1.09.16zm4.77-.45a5.7 5.7 0 0 1 .95-2.64c.45-.59 1.08-.9 1.87-.96.74-.04 1.57-.06 2.49-.08l.03.78h-.59c-.77.02-1.39.03-1.86.06-.48.03-.87.22-1.16.55-.29.33-.5.85-.64 1.54h.06a2.23 2.23 0 0 1 1.88-.6c.65.1 1.13.4 1.44.87.3.47.4 1.08.29 1.83a2.78 2.78 0 0 1-.94 1.85c-.5.4-1.13.54-1.9.43a2.1 2.1 0 0 1-1.64-1.13 4.01 4.01 0 0 1-.28-2.5zm.9.15c-.26 1.69.14 2.61 1.2 2.77.97.14 1.54-.4 1.72-1.62.18-1.16-.17-1.8-1.04-1.94a1.72 1.72 0 0 0-.7.05 2.32 2.32 0 0 0-1.19.74zm8.82 4.53l-.89-.13.7-4.56-1.58-.23a19.46 19.46 0 0 1-.77 2.66 3.72 3.72 0 0 1-.83 1.36c-.29.27-.63.38-1.01.32a1.18 1.18 0 0 1-.46-.13l.1-.65c.07.03.16.06.27.08.35.05.7-.28 1.02-1 .32-.7.67-1.87 1.03-3.48l3.22.48zm2.94-2.74l1.58.23c1.39.2 2 .8 1.85 1.8-.08.53-.32.9-.72 1.13-.4.22-.95.28-1.64.18l-2.42-.36.8-5.29.87.13zm2.55 1.95c.04-.28-.02-.5-.2-.67-.19-.16-.51-.28-.98-.35l-1.48-.22-.26 1.7 1.5.23c.42.06.75.03 1-.08a.74.74 0 0 0 .42-.6z"/></defs><g><g transform="translate(-1491 -424)"><use fill="#243c73" xlink:href="#3acea"/></g><g transform="translate(-1491 -424)"><use fill="#243c73" xlink:href="#3aceb"/></g></g></svg>